<svg width="24" height="24" viewBox="0 0 24 24" fill="none" xmlns="http://www.w3.org/2000/svg">
<path d="M12.0002 22.7999C9.11541 22.7999 6.40331 21.6765 4.36341 19.6367C2.32361 17.5968 1.2002 14.8847 1.2002 12C1.2002 9.11517 2.32361 6.40306 4.36341 4.36317C6.40331 2.32336 9.11541 1.19995 12.0002 1.19995C14.885 1.19995 17.5971 2.32336 19.637 4.36317C21.6768 6.40306 22.8002 9.11517 22.8002 12C22.8002 14.8847 21.6768 17.5968 19.637 19.6367C17.5971 21.6765 14.885 22.7999 12.0002 22.7999ZM12.0002 2.88745C6.97554 2.88745 2.8877 6.97529 2.8877 12C2.8877 17.0246 6.97554 21.1124 12.0002 21.1124C17.0249 21.1124 21.1127 17.0246 21.1127 12C21.1127 6.97529 17.0249 2.88745 12.0002 2.88745ZM15.9547 13.8641C15.5616 13.6139 15.0401 13.7298 14.7899 14.123C14.7795 14.1393 13.7295 15.7572 11.958 15.7572C10.1866 15.7572 9.13651 14.1393 9.12609 14.123C8.87592 13.7298 8.35444 13.614 7.96129 13.8641C7.56814 14.1143 7.45226 14.6358 7.70243 15.0289C7.7652 15.1276 9.27062 17.4447 11.958 17.4447C14.6454 17.4447 16.1508 15.1276 16.2136 15.0289C16.4638 14.6358 16.3479 14.1143 15.9547 13.8641ZM8.28769 8.16089C8.87018 8.16089 9.34238 8.63309 9.34238 9.21558C9.34238 9.79806 8.87018 10.2703 8.28769 10.2703C7.70521 10.2703 7.23301 9.79806 7.23301 9.21558C7.23301 8.63309 7.70521 8.16089 8.28769 8.16089ZM14.6158 9.21558C14.6158 9.79806 15.088 10.2703 15.6705 10.2703C16.253 10.2703 16.7252 9.79806 16.7252 9.21558C16.7252 8.63309 16.253 8.16089 15.6705 8.16089C15.088 8.16089 14.6158 8.63309 14.6158 9.21558Z" fill="#959595"/>
</svg>
