<svg width="24" height="24" viewBox="0 0 24 24" fill="none" xmlns="http://www.w3.org/2000/svg">
<path fill-rule="evenodd" clip-rule="evenodd" d="M12.2903 8.7058L15.8303 12.2458L12.2903 15.8358C12.104 16.0232 11.9995 16.2766 11.9995 16.5408C11.9995 16.805 12.104 17.0584 12.2903 17.2458C12.3837 17.3385 12.4946 17.4118 12.6164 17.4616C12.7382 17.5113 12.8687 17.5366 13.0003 17.5358C13.1319 17.5366 13.2624 17.5113 13.3842 17.4616C13.506 17.4118 13.6169 17.3385 13.7103 17.2458L17.9503 12.9558C18.044 12.8628 18.1184 12.7522 18.1692 12.6304C18.22 12.5085 18.2461 12.3778 18.2461 12.2458C18.2461 12.1138 18.22 11.9831 18.1692 11.8612C18.1184 11.7394 18.044 11.6288 17.9503 11.5358L13.7103 7.2958C13.6173 7.20207 13.5067 7.12768 13.3849 7.07691C13.263 7.02614 13.1323 7 13.0003 7C12.8683 7 12.7376 7.02614 12.6157 7.07691C12.4939 7.12768 12.3833 7.20207 12.2903 7.2958C12.104 7.48316 11.9995 7.73661 11.9995 8.0008C11.9995 8.26498 12.104 8.51844 12.2903 8.7058ZM6.2903 8.7058L9.8303 12.2458L6.2903 15.8358C6.10404 16.0232 5.9995 16.2766 5.9995 16.5408C5.9995 16.805 6.10404 17.0584 6.2903 17.2458C6.38374 17.3385 6.49455 17.4118 6.61639 17.4616C6.73823 17.5113 6.86869 17.5366 7.0003 17.5358C7.1319 17.5366 7.26236 17.5113 7.3842 17.4616C7.50604 17.4118 7.61686 17.3385 7.7103 17.2458L11.9503 12.9558C12.044 12.8628 12.1184 12.7522 12.1692 12.6304C12.22 12.5085 12.2461 12.3778 12.2461 12.2458C12.2461 12.1138 12.22 11.9831 12.1692 11.8612C12.1184 11.7394 12.044 11.6288 11.9503 11.5358L7.7103 7.2958C7.61733 7.20207 7.50673 7.12768 7.38487 7.07691C7.26301 7.02614 7.13231 7 7.0003 7C6.86828 7 6.73758 7.02614 6.61572 7.07691C6.49386 7.12768 6.38326 7.20207 6.2903 7.2958C6.10404 7.48316 5.9995 7.73661 5.9995 8.0008C5.9995 8.26498 6.10404 8.51844 6.2903 8.7058Z" fill="white"/>
</svg>
