<svg width="20" height="20" viewBox="0 0 20 20" fill="none" xmlns="http://www.w3.org/2000/svg">
<path d="M6.66704 9.16669C6.50223 9.16669 6.34111 9.21556 6.20407 9.30713C6.06703 9.3987 5.96022 9.52885 5.89714 9.68112C5.83407 9.83339 5.81757 10.0009 5.84972 10.1626C5.88188 10.3242 5.96124 10.4727 6.07779 10.5893C6.19433 10.7058 6.34282 10.7852 6.50447 10.8173C6.66612 10.8495 6.83367 10.833 6.98595 10.7699C7.13822 10.7068 7.26837 10.6 7.35993 10.463C7.4515 10.326 7.50038 10.1648 7.50038 10C7.50038 9.77901 7.41258 9.56705 7.2563 9.41076C7.10002 9.25448 6.88806 9.16669 6.66704 9.16669ZM10.0004 9.16669C9.83556 9.16669 9.67444 9.21556 9.5374 9.30713C9.40036 9.3987 9.29355 9.52885 9.23048 9.68112C9.1674 9.83339 9.1509 10.0009 9.18306 10.1626C9.21521 10.3242 9.29458 10.4727 9.41112 10.5893C9.52767 10.7058 9.67615 10.7852 9.8378 10.8173C9.99945 10.8495 10.167 10.833 10.3193 10.7699C10.4716 10.7068 10.6017 10.6 10.6933 10.463C10.7848 10.326 10.8337 10.1648 10.8337 10C10.8337 9.77901 10.7459 9.56705 10.5896 9.41076C10.4334 9.25448 10.2214 9.16669 10.0004 9.16669ZM13.3337 9.16669C13.1689 9.16669 13.0078 9.21556 12.8707 9.30713C12.7337 9.3987 12.6269 9.52885 12.5638 9.68112C12.5007 9.83339 12.4842 10.0009 12.5164 10.1626C12.5485 10.3242 12.6279 10.4727 12.7445 10.5893C12.861 10.7058 13.0095 10.7852 13.1711 10.8173C13.3328 10.8495 13.5003 10.833 13.6526 10.7699C13.8049 10.7068 13.935 10.6 14.0266 10.463C14.1182 10.326 14.167 10.1648 14.167 10C14.167 9.77901 14.0792 9.56705 13.923 9.41076C13.7667 9.25448 13.5547 9.16669 13.3337 9.16669ZM10.0004 1.66669C8.90603 1.66669 7.82239 1.88224 6.81135 2.30102C5.8003 2.71981 4.88164 3.33364 4.10782 4.10746C2.54502 5.67027 1.66704 7.78988 1.66704 10C1.65976 11.9243 2.32604 13.7905 3.55038 15.275L1.88371 16.9417C1.76808 17.0589 1.68975 17.2077 1.6586 17.3693C1.62746 17.531 1.64489 17.6983 1.70871 17.85C1.77792 18 1.89013 18.126 2.03108 18.212C2.17203 18.2981 2.33538 18.3403 2.50038 18.3334H10.0004C12.2105 18.3334 14.3301 17.4554 15.8929 15.8926C17.4557 14.3298 18.3337 12.2102 18.3337 10C18.3337 7.78988 17.4557 5.67027 15.8929 4.10746C14.3301 2.54466 12.2105 1.66669 10.0004 1.66669ZM10.0004 16.6667H4.50871L5.28371 15.8917C5.36245 15.8145 5.42509 15.7225 5.46801 15.6209C5.51092 15.5193 5.53325 15.4103 5.53371 15.3C5.53058 15.0802 5.44072 14.8705 5.28371 14.7167C4.19253 13.6267 3.51302 12.1921 3.36095 10.6573C3.20888 9.12256 3.59366 7.58253 4.44973 6.29962C5.3058 5.01672 6.5802 4.07032 8.05581 3.62166C9.53141 3.17301 11.1169 3.24986 12.5422 3.83911C13.9675 4.42837 15.1444 5.49358 15.8724 6.85326C16.6004 8.21294 16.8344 9.78297 16.5346 11.2959C16.2349 12.8087 15.4198 14.1709 14.2283 15.1502C13.0368 16.1295 11.5427 16.6655 10.0004 16.6667Z" fill="black"/>
</svg>
