<svg width="20" height="20" viewBox="0 0 20 20" fill="none" xmlns="http://www.w3.org/2000/svg">
<path d="M4.16636 16.6715H7.69969C7.80936 16.6722 7.91808 16.6512 8.01961 16.6097C8.12114 16.5682 8.21349 16.5071 8.29136 16.4299L14.058 10.6549L16.4247 8.33821C16.5028 8.26074 16.5648 8.16857 16.6071 8.06702C16.6494 7.96547 16.6712 7.85655 16.6712 7.74654C16.6712 7.63653 16.6494 7.52761 16.6071 7.42606C16.5648 7.32451 16.5028 7.23234 16.4247 7.15487L12.8914 3.57987C12.8139 3.50177 12.7217 3.43977 12.6202 3.39746C12.5186 3.35516 12.4097 3.33337 12.2997 3.33337C12.1897 3.33337 12.0808 3.35516 11.9792 3.39746C11.8777 3.43977 11.7855 3.50177 11.708 3.57987L9.35802 5.93821L3.57469 11.7132C3.49745 11.7911 3.43635 11.8834 3.39488 11.985C3.35341 12.0865 3.33239 12.1952 3.33302 12.3049V15.8382C3.33302 16.0592 3.42082 16.2712 3.5771 16.4275C3.73338 16.5837 3.94534 16.6715 4.16636 16.6715ZM12.2997 5.34654L14.658 7.70487L13.4747 8.88821L11.1164 6.52987L12.2997 5.34654ZM4.99969 12.6465L9.94136 7.70487L12.2997 10.0632L7.35802 15.0049H4.99969V12.6465Z" fill="#959595"/>
</svg>
