<svg width="20" height="20" viewBox="0 0 20 20" fill="none" xmlns="http://www.w3.org/2000/svg">
<path d="M16.6663 7.45002C16.6577 7.37347 16.6409 7.29805 16.6163 7.22502V7.15002C16.5763 7.06434 16.5228 6.98557 16.458 6.91669L11.458 1.91669C11.3891 1.85187 11.3104 1.79842 11.2247 1.75835H11.1497C11.065 1.7098 10.9715 1.67864 10.8747 1.66669H5.83301C5.16997 1.66669 4.53408 1.93008 4.06524 2.39892C3.5964 2.86776 3.33301 3.50365 3.33301 4.16669V15.8334C3.33301 16.4964 3.5964 17.1323 4.06524 17.6011C4.53408 18.07 5.16997 18.3334 5.83301 18.3334H14.1663C14.8294 18.3334 15.4653 18.07 15.9341 17.6011C16.4029 17.1323 16.6663 16.4964 16.6663 15.8334V7.50002C16.6663 7.50002 16.6663 7.50002 16.6663 7.45002ZM11.6663 4.50835L13.8247 6.66669H12.4997C12.2787 6.66669 12.0667 6.57889 11.9104 6.42261C11.7541 6.26633 11.6663 6.05437 11.6663 5.83335V4.50835ZM14.9997 15.8334C14.9997 16.0544 14.9119 16.2663 14.7556 16.4226C14.5993 16.5789 14.3874 16.6667 14.1663 16.6667H5.83301C5.61199 16.6667 5.40003 16.5789 5.24375 16.4226C5.08747 16.2663 4.99967 16.0544 4.99967 15.8334V4.16669C4.99967 3.94567 5.08747 3.73371 5.24375 3.57743C5.40003 3.42115 5.61199 3.33335 5.83301 3.33335H9.99967V5.83335C9.99967 6.4964 10.2631 7.13228 10.7319 7.60112C11.2007 8.06996 11.8366 8.33335 12.4997 8.33335H14.9997V15.8334Z" fill="#959595"/>
</svg>
