<svg width="20" height="20" viewBox="0 0 20 20" fill="none" xmlns="http://www.w3.org/2000/svg">
<path d="M14.1663 7.50002V5.83335C14.1663 4.72829 13.7274 3.66848 12.946 2.88708C12.1646 2.10567 11.1047 1.66669 9.99967 1.66669C8.89461 1.66669 7.8348 2.10567 7.0534 2.88708C6.27199 3.66848 5.83301 4.72829 5.83301 5.83335V7.50002C5.16997 7.50002 4.53408 7.76341 4.06524 8.23225C3.5964 8.70109 3.33301 9.33698 3.33301 10V15.8334C3.33301 16.4964 3.5964 17.1323 4.06524 17.6011C4.53408 18.07 5.16997 18.3334 5.83301 18.3334H14.1663C14.8294 18.3334 15.4653 18.07 15.9341 17.6011C16.4029 17.1323 16.6663 16.4964 16.6663 15.8334V10C16.6663 9.33698 16.4029 8.70109 15.9341 8.23225C15.4653 7.76341 14.8294 7.50002 14.1663 7.50002ZM7.49967 5.83335C7.49967 5.17031 7.76307 4.53443 8.23191 4.06559C8.70075 3.59675 9.33663 3.33335 9.99967 3.33335C10.6627 3.33335 11.2986 3.59675 11.7674 4.06559C12.2363 4.53443 12.4997 5.17031 12.4997 5.83335V7.50002H7.49967V5.83335ZM14.9997 15.8334C14.9997 16.0544 14.9119 16.2663 14.7556 16.4226C14.5993 16.5789 14.3874 16.6667 14.1663 16.6667H5.83301C5.61199 16.6667 5.40003 16.5789 5.24375 16.4226C5.08747 16.2663 4.99967 16.0544 4.99967 15.8334V10C4.99967 9.77901 5.08747 9.56705 5.24375 9.41077C5.40003 9.25449 5.61199 9.16669 5.83301 9.16669H14.1663C14.3874 9.16669 14.5993 9.25449 14.7556 9.41077C14.9119 9.56705 14.9997 9.77901 14.9997 10V15.8334Z" fill="#959595"/>
</svg>
