<svg width="20" height="20" viewBox="0 0 20 20" fill="none" xmlns="http://www.w3.org/2000/svg">
<path fill-rule="evenodd" clip-rule="evenodd" d="M10.0004 0.833313C8.45329 0.833313 6.96956 1.44789 5.8756 2.54186C4.78164 3.63582 4.16706 5.11955 4.16706 6.66665C4.16706 9.46053 3.5695 11.1955 3.01881 12.2051C2.74232 12.712 2.47308 13.0445 2.28605 13.242C2.19233 13.3409 2.11867 13.4065 2.07433 13.4435C2.05214 13.4619 2.03726 13.4733 2.03085 13.4781L2.02847 13.4798C1.72973 13.685 1.59753 14.0604 1.70281 14.4081C1.80923 14.7596 2.13317 15 2.50039 15H17.5004C17.8676 15 18.1916 14.7596 18.298 14.4081C18.4033 14.0604 18.2711 13.685 17.9723 13.4798L17.9699 13.4781C17.9635 13.4733 17.9486 13.4619 17.9265 13.4435C17.8821 13.4065 17.8085 13.3409 17.7147 13.242C17.5277 13.0445 17.2585 12.712 16.982 12.2051C16.4313 11.1955 15.8337 9.46053 15.8337 6.66665C15.8337 5.11955 15.2191 3.63582 14.1252 2.54186C13.0312 1.44789 11.5475 0.833313 10.0004 0.833313ZM15.5188 13.0032C15.5822 13.1195 15.6459 13.2294 15.7093 13.3333H4.29149C4.3549 13.2294 4.41856 13.1195 4.48197 13.0032C5.18128 11.7211 5.83372 9.7061 5.83372 6.66665C5.83372 5.56158 6.27271 4.50177 7.05411 3.72037C7.83551 2.93897 8.89532 2.49998 10.0004 2.49998C11.1055 2.49998 12.1653 2.93897 12.9467 3.72037C13.7281 4.50177 14.1671 5.56158 14.1671 6.66665C14.1671 9.7061 14.8195 11.7211 15.5188 13.0032ZM9.27957 17.0819C9.04864 16.6838 8.5387 16.5482 8.14059 16.7792C7.74249 17.0101 7.60697 17.5201 7.8379 17.9182C8.05767 18.297 8.3731 18.6115 8.75262 18.8301C9.13214 19.0487 9.56243 19.1637 10.0004 19.1637C10.4384 19.1637 10.8687 19.0487 11.2482 18.8301C11.6277 18.6115 11.9431 18.297 12.1629 17.9182C12.3938 17.5201 12.2583 17.0101 11.8602 16.7792C11.4621 16.5482 10.9522 16.6838 10.7212 17.0819C10.648 17.2082 10.5428 17.313 10.4163 17.3858C10.2898 17.4587 10.1464 17.4971 10.0004 17.4971C9.85441 17.4971 9.71098 17.4587 9.58448 17.3858C9.45797 17.313 9.35282 17.2082 9.27957 17.0819Z" fill="black"/>
</svg>
