<svg width="20" height="20" viewBox="0 0 20 20" fill="none" xmlns="http://www.w3.org/2000/svg">
<path d="M15.833 9.16665H10.833V4.16665C10.833 3.94563 10.7452 3.73367 10.5889 3.57739C10.4326 3.42111 10.2207 3.33331 9.99967 3.33331C9.77866 3.33331 9.5667 3.42111 9.41042 3.57739C9.25414 3.73367 9.16634 3.94563 9.16634 4.16665V9.16665H4.16634C3.94533 9.16665 3.73337 9.25444 3.57709 9.41072C3.42081 9.567 3.33301 9.77897 3.33301 9.99998C3.33301 10.221 3.42081 10.433 3.57709 10.5892C3.73337 10.7455 3.94533 10.8333 4.16634 10.8333H9.16634V15.8333C9.16634 16.0543 9.25414 16.2663 9.41042 16.4226C9.5667 16.5788 9.77866 16.6666 9.99967 16.6666C10.2207 16.6666 10.4326 16.5788 10.5889 16.4226C10.7452 16.2663 10.833 16.0543 10.833 15.8333V10.8333H15.833C16.054 10.8333 16.266 10.7455 16.4223 10.5892C16.5785 10.433 16.6663 10.221 16.6663 9.99998C16.6663 9.77897 16.5785 9.567 16.4223 9.41072C16.266 9.25444 16.054 9.16665 15.833 9.16665Z" fill="white"/>
</svg>
