<svg width="22" height="22" viewBox="0 0 22 22" fill="none" xmlns="http://www.w3.org/2000/svg">
<g clip-path="url(#clip0_5626_78154)">
<path d="M20.167 13.75H18.3337V11C18.3337 10.7569 18.2371 10.5237 18.0652 10.3518C17.8933 10.1799 17.6601 10.0834 17.417 10.0834H11.917V8.25002H13.7503C13.9934 8.25002 14.2266 8.15344 14.3985 7.98153C14.5704 7.80963 14.667 7.57647 14.667 7.33335V1.83335C14.667 1.59024 14.5704 1.35708 14.3985 1.18517C14.2266 1.01326 13.9934 0.916687 13.7503 0.916687H8.25033C8.00721 0.916687 7.77405 1.01326 7.60214 1.18517C7.43024 1.35708 7.33366 1.59024 7.33366 1.83335V7.33335C7.33366 7.57647 7.43024 7.80963 7.60214 7.98153C7.77405 8.15344 8.00721 8.25002 8.25033 8.25002H10.0837V10.0834H4.58366C4.34054 10.0834 4.10739 10.1799 3.93548 10.3518C3.76357 10.5237 3.66699 10.7569 3.66699 11V13.75H1.83366C1.59054 13.75 1.35739 13.8466 1.18548 14.0185C1.01357 14.1904 0.916992 14.4236 0.916992 14.6667V20.1667C0.916992 20.4098 1.01357 20.643 1.18548 20.8149C1.35739 20.9868 1.59054 21.0834 1.83366 21.0834H7.33366C7.57677 21.0834 7.80993 20.9868 7.98184 20.8149C8.15375 20.643 8.25033 20.4098 8.25033 20.1667V14.6667C8.25033 14.4236 8.15375 14.1904 7.98184 14.0185C7.80993 13.8466 7.57677 13.75 7.33366 13.75H5.50033V11.9167H16.5003V13.75H14.667C14.4239 13.75 14.1907 13.8466 14.0188 14.0185C13.8469 14.1904 13.7503 14.4236 13.7503 14.6667V20.1667C13.7503 20.4098 13.8469 20.643 14.0188 20.8149C14.1907 20.9868 14.4239 21.0834 14.667 21.0834H20.167C20.4101 21.0834 20.6433 20.9868 20.8152 20.8149C20.9871 20.643 21.0837 20.4098 21.0837 20.1667V14.6667C21.0837 14.4236 20.9871 14.1904 20.8152 14.0185C20.6433 13.8466 20.4101 13.75 20.167 13.75ZM6.41699 15.5834V19.25H2.75033V15.5834H6.41699ZM9.16699 6.41669V2.75002H12.8337V6.41669H9.16699ZM19.2503 19.25H15.5837V15.5834H19.2503V19.25Z" fill="white" fill-opacity="0.4"/>
</g>
<defs>
<clipPath id="clip0_5626_78154">
<rect width="22" height="22" fill="white"/>
</clipPath>
</defs>
</svg>
