<svg width="22" height="22" viewBox="0 0 22 22" fill="none" xmlns="http://www.w3.org/2000/svg">
<path d="M17.4163 5.95835H14.6663V5.04169C14.6663 4.31234 14.3766 3.61287 13.8609 3.09714C13.3452 2.58142 12.6457 2.29169 11.9163 2.29169H10.083C9.35366 2.29169 8.65419 2.58142 8.13846 3.09714C7.62274 3.61287 7.33301 4.31234 7.33301 5.04169V5.95835H4.58301C3.85366 5.95835 3.15419 6.24809 2.63846 6.76381C2.12274 7.27954 1.83301 7.97901 1.83301 8.70835V16.9584C1.83301 17.6877 2.12274 18.3872 2.63846 18.9029C3.15419 19.4186 3.85366 19.7084 4.58301 19.7084H17.4163C18.1457 19.7084 18.8452 19.4186 19.3609 18.9029C19.8766 18.3872 20.1663 17.6877 20.1663 16.9584V8.70835C20.1663 7.97901 19.8766 7.27954 19.3609 6.76381C18.8452 6.24809 18.1457 5.95835 17.4163 5.95835ZM9.16634 5.04169C9.16634 4.79857 9.26292 4.56541 9.43483 4.39351C9.60673 4.2216 9.83989 4.12502 10.083 4.12502H11.9163C12.1595 4.12502 12.3926 4.2216 12.5645 4.39351C12.7364 4.56541 12.833 4.79857 12.833 5.04169V5.95835H9.16634V5.04169ZM18.333 16.9584C18.333 17.2015 18.2364 17.4346 18.0645 17.6065C17.8926 17.7784 17.6595 17.875 17.4163 17.875H4.58301C4.33989 17.875 4.10673 17.7784 3.93483 17.6065C3.76292 17.4346 3.66634 17.2015 3.66634 16.9584V12.3292H6.41634V13.2917C6.41634 13.5348 6.51292 13.768 6.68483 13.9399C6.85673 14.1118 7.08989 14.2084 7.33301 14.2084C7.57612 14.2084 7.80928 14.1118 7.98119 13.9399C8.1531 13.768 8.24967 13.5348 8.24967 13.2917V12.3292H13.7497V13.2917C13.7497 13.5348 13.8463 13.768 14.0182 13.9399C14.1901 14.1118 14.4232 14.2084 14.6663 14.2084C14.9095 14.2084 15.1426 14.1118 15.3145 13.9399C15.4864 13.768 15.583 13.5348 15.583 13.2917V12.3292H18.333V16.9584ZM18.333 10.5417H3.66634V8.70835C3.66634 8.46524 3.76292 8.23208 3.93483 8.06017C4.10673 7.88826 4.33989 7.79169 4.58301 7.79169H17.4163C17.6595 7.79169 17.8926 7.88826 18.0645 8.06017C18.2364 8.23208 18.333 8.46524 18.333 8.70835V10.5417Z" fill="white" fill-opacity="0.4"/>
</svg>
