<svg width="22" height="22" viewBox="0 0 22 22" fill="none" xmlns="http://www.w3.org/2000/svg">
<path d="M11.2753 11.2016C11.7644 10.7783 12.1567 10.2546 12.4256 9.66625C12.6945 9.07788 12.8337 8.43855 12.8337 7.79165C12.8337 6.57607 12.3508 5.41028 11.4912 4.55074C10.6317 3.6912 9.4659 3.20831 8.25033 3.20831C7.03475 3.20831 5.86896 3.6912 5.00942 4.55074C4.14988 5.41028 3.66699 6.57607 3.66699 7.79165C3.66699 8.43855 3.80614 9.07788 4.07502 9.66625C4.3439 10.2546 4.73621 10.7783 5.22533 11.2016C3.94212 11.7827 2.85342 12.721 2.08939 13.9045C1.32536 15.0879 0.918341 16.4663 0.916992 17.875C0.916992 18.1181 1.01357 18.3513 1.18548 18.5232C1.35739 18.6951 1.59054 18.7916 1.83366 18.7916C2.07677 18.7916 2.30993 18.6951 2.48184 18.5232C2.65375 18.3513 2.75033 18.1181 2.75033 17.875C2.75033 16.4163 3.32979 15.0173 4.36124 13.9859C5.39269 12.9544 6.79164 12.375 8.25033 12.375C9.70902 12.375 11.108 12.9544 12.1394 13.9859C13.1709 15.0173 13.7503 16.4163 13.7503 17.875C13.7503 18.1181 13.8469 18.3513 14.0188 18.5232C14.1907 18.6951 14.4239 18.7916 14.667 18.7916C14.9101 18.7916 15.1433 18.6951 15.3152 18.5232C15.4871 18.3513 15.5837 18.1181 15.5837 17.875C15.5823 16.4663 15.1753 15.0879 14.4113 13.9045C13.6472 12.721 12.5585 11.7827 11.2753 11.2016ZM8.25033 10.5416C7.70643 10.5416 7.17474 10.3804 6.72251 10.0782C6.27027 9.77601 5.9178 9.34652 5.70966 8.84403C5.50152 8.34153 5.44706 7.7886 5.55317 7.25515C5.65928 6.7217 5.92119 6.2317 6.30578 5.8471C6.69038 5.46251 7.18038 5.2006 7.71383 5.09449C8.24728 4.98838 8.80021 5.04284 9.3027 5.25098C9.8052 5.45912 10.2347 5.81159 10.5369 6.26383C10.839 6.71606 11.0003 7.24775 11.0003 7.79165C11.0003 8.52099 10.7106 9.22047 10.1949 9.73619C9.67914 10.2519 8.97967 10.5416 8.25033 10.5416ZM17.1787 10.835C17.7653 10.1744 18.1485 9.35828 18.2821 8.48496C18.4158 7.61163 18.2942 6.7183 17.9319 5.91248C17.5697 5.10666 16.9823 4.42271 16.2404 3.94295C15.4985 3.46319 14.6338 3.20808 13.7503 3.20831C13.5072 3.20831 13.2741 3.30489 13.1021 3.4768C12.9302 3.64871 12.8337 3.88186 12.8337 4.12498C12.8337 4.36809 12.9302 4.60125 13.1021 4.77316C13.2741 4.94507 13.5072 5.04165 13.7503 5.04165C14.4797 5.04165 15.1791 5.33138 15.6949 5.8471C16.2106 6.36283 16.5003 7.0623 16.5003 7.79165C16.499 8.27312 16.3713 8.74581 16.13 9.16245C15.8888 9.57909 15.5423 9.92508 15.1253 10.1658C14.9894 10.2442 14.8759 10.3562 14.7957 10.491C14.7154 10.6258 14.6711 10.779 14.667 10.9358C14.6632 11.0914 14.699 11.2455 14.7712 11.3834C14.8434 11.5213 14.9495 11.6386 15.0795 11.7241L15.437 11.9625L15.5562 12.0266C16.6611 12.5507 17.5933 13.3796 18.2429 14.4158C18.8925 15.4519 19.2325 16.6521 19.2228 17.875C19.2228 18.1181 19.3194 18.3513 19.4913 18.5232C19.6632 18.6951 19.8964 18.7916 20.1395 18.7916C20.3826 18.7916 20.6158 18.6951 20.7877 18.5232C20.9596 18.3513 21.0562 18.1181 21.0562 17.875C21.0637 16.4683 20.7113 15.083 20.0327 13.8509C19.354 12.6187 18.3716 11.5805 17.1787 10.835Z" fill="white" fill-opacity="0.4"/>
</svg>
